<?xml version="1.0" encoding="UTF-8"?>
<svg width="250px" height="54px" viewBox="0 0 250 54" version="1.1" xmlns="http://www.w3.org/2000/svg" xmlns:xlink="http://www.w3.org/1999/xlink">
    <!-- Generator: Sketch 40.3 (33839) - http://www.bohemiancoding.com/sketch -->
    <title>app-store-best-new-app</title>
    <desc>Created with Sketch.</desc>
    <defs></defs>
    <g id="Symbols" stroke="none" stroke-width="1" fill="none" fill-rule="evenodd">
        <g id="app-store-best-new-app" fill="#FFFFFF">
            <g id="Group-3" transform="translate(3.000000, 3.000000)">
                <text id="Best-New-App" opacity="0.800000012" font-family="SFUIText-Semibold, SF UI Text" font-size="22" font-weight="500">
                    <tspan x="62" y="21">Best New App</tspan>
                </text>
                <text id="App-Store,-July-2015" opacity="0.5" font-family="SFUIText-Regular, SF UI Text" font-size="14" font-weight="normal">
                    <tspan x="62" y="43">App Store, </tspan>
                    <tspan x="136.163086" y="43" font-family="SFUIText-Italic, SF UI Text" font-style="italic">July 2015</tspan>
                </text>
                <g id="image_large">
                    <g id="Global_Nav_Large_Icons">
                        <path d="M36.9352941,32.7221 C36.6921176,33.4282 36.4374706,34.1021 36.1667647,34.7484 C35.5060588,36.2756 34.7260588,37.6809 33.8221765,38.9712 C32.5925294,40.733 31.5831176,41.952 30.8054118,42.6282 C29.601,43.7391 28.3094118,44.3095 26.9260588,44.3394 C25.9327059,44.3394 24.7374706,44.0565 23.3426471,43.4838 C21.9455294,42.9111 20.6608235,42.6282 19.4862353,42.6282 C18.2542941,42.6282 16.9328824,42.9111 15.5197059,43.4838 C14.1042353,44.0565 12.9640588,44.3578 12.0922941,44.3854 C10.7662941,44.4429 9.44488235,43.8587 8.12576471,42.6282 C7.28382353,41.8922 6.23082353,40.6295 4.96905882,38.8424 C3.61552941,36.9334 2.50288235,34.7185 1.63111765,32.1931 C0.697411765,29.4676 0.229411765,26.8272 0.229411765,24.2719 C0.229411765,21.344 0.860294118,18.8186 2.12435294,16.7026 C3.11770588,15.0029 4.43911765,13.662 6.09317647,12.6776 C7.74723529,11.6932 9.53435294,11.1918 11.4591176,11.1596 C12.5121176,11.1596 13.8931765,11.4862 15.6091765,12.1279 C17.3205882,12.7719 18.4194706,13.0985 18.9012353,13.0985 C19.2614118,13.0985 20.4818824,12.7167 22.5511765,11.9554 C24.5080588,11.2493 26.1598235,10.9572 27.5133529,11.0722 C31.1793529,11.3689 33.9322941,12.8179 35.7652941,15.4284 C32.487,17.4202 30.8650588,20.2101 30.8971765,23.7889 C30.927,26.5765 31.9341176,28.8972 33.9162353,30.7395 C34.8155294,31.5928 35.8203529,32.2529 36.9352941,32.7221 L36.9352941,32.7221 Z M27.7129412,0.7015 C27.7427647,0.9936 27.7565294,1.2857 27.7565294,1.5755 C27.7565294,3.7605 26.9604706,5.8006 25.3752353,7.6889 C23.4596471,9.9337 21.1425882,11.2309 18.6305294,11.0262 C18.5984118,10.764 18.5800588,10.488 18.5800588,10.1982 C18.5800588,8.1006 19.4908235,5.8558 21.1081765,4.0204 C21.9157059,3.0912 22.9434706,2.3184 24.1868824,1.702 C25.4302941,1.0948 26.6071765,0.759 27.7129412,0.7015 L27.7129412,0.7015 Z" id="Apple"></path>
                    </g>
                </g>
            </g>
        </g>
    </g>
</svg>