<svg xmlns="http://www.w3.org/2000/svg" width="243" height="54" viewBox="0 0 243 54">
  <g fill="#FFFFFF" fill-rule="evenodd" transform="translate(3 9)">
    <text opacity=".8" font-family="SFUIText-Regular, SF UI Text" font-size="16">
      <tspan x="47" y="15">Best New App</tspan>
    </text>
    <text opacity=".5" font-family="SFUIText-Regular, SF UI Text" font-size="14">
      <tspan x="47" y="34">July 2015</tspan>
    </text>
    <path d="M27.9510334,24.7233644 C27.7670079,25.2568622 27.5743021,25.7660311 27.3694436,26.2543467 C26.8694499,27.4082311 26.2791797,28.4700133 25.5951606,29.4449067 C24.6646169,30.7760444 23.9007377,31.6970667 23.3122035,32.2079733 C22.4007568,33.04732 21.4233386,33.4782889 20.3764769,33.50088 C19.6247504,33.50088 18.720248,33.2871333 17.6647059,32.8544267 C16.6074277,32.42172 15.6352178,32.2079733 14.7463402,32.2079733 C13.8140604,32.2079733 12.8140731,32.42172 11.7446423,32.8544267 C10.6734754,33.2871333 9.81063911,33.5147822 9.15092528,33.5356356 C8.14746582,33.57908 7.14747854,33.1376844 6.14922734,32.2079733 C5.51208267,31.6518844 4.71521781,30.6978444 3.76036884,29.3475911 C2.73607631,27.9052356 1.89407313,26.2317556 1.2343593,24.3236756 C0.527771065,22.2644089 0.173608903,20.26944 0.173608903,18.3387689 C0.173608903,16.1265778 0.651033386,14.2184978 1.60761844,12.6197422 C2.35934499,11.3355244 3.35933227,10.3224 4.61105246,9.57863111 C5.86277266,8.83486222 7.21518601,8.45602667 8.67176471,8.43169778 C9.46862957,8.43169778 10.5137552,8.67846222 11.8123498,9.16330222 C13.1074722,9.64988 13.9390588,9.89664444 14.3036375,9.89664444 C14.5762035,9.89664444 15.4998029,9.60817333 17.0657552,9.03296889 C18.5466391,8.49947111 19.7966232,8.27877333 20.8209157,8.36566222 C23.595186,8.58983556 25.6784928,9.68463556 27.065628,11.6570133 C24.5847568,13.1619289 23.3573418,15.2698533 23.3816471,17.9738356 C23.4042162,20.0800222 24.1663593,21.83344 25.6663402,23.2254 C26.3468871,23.8701156 27.1072941,24.3688578 27.9510334,24.7233644 L27.9510334,24.7233644 Z M20.9719555,0.530022222 C20.9945246,0.75072 21.0049412,0.971417778 21.0049412,1.19037778 C21.0049412,2.84126667 20.4025183,4.38267556 19.2028808,5.80939111 C17.7532464,7.50546222 15.9997965,8.48556889 14.098779,8.33090667 C14.0744738,8.1328 14.0605851,7.92426667 14.0605851,7.70530667 C14.0605851,6.12045333 14.7498124,4.42438222 15.9737552,3.03763556 C16.5848585,2.33557333 17.3626264,1.75168 18.3035866,1.28595556 C19.2445469,0.827182222 20.1351606,0.573466667 20.9719555,0.530022222 L20.9719555,0.530022222 Z" transform="translate(0 1)"/>
  </g>
</svg>
