<svg xmlns="http://www.w3.org/2000/svg" width="184" height="54" viewBox="0 0 184 54">
  <g fill="#FFFFFF" fill-rule="evenodd">
    <path d="M56.046875,24 C58.453125,24 59.8984375,22.7890625 59.8984375,20.8046875 C59.8984375,19.3359375 58.8828125,18.25 57.359375,18.09375 L57.359375,17.9609375 C58.46875,17.7734375 59.3359375,16.71875 59.3359375,15.5390625 C59.3359375,13.8046875 58.0625,12.7265625 55.9453125,12.7265625 L51.4140625,12.7265625 L51.4140625,24 L56.046875,24 Z M53.1640625,14.2109375 L55.5390625,14.2109375 C56.8359375,14.2109375 57.59375,14.8203125 57.59375,15.859375 C57.59375,16.9296875 56.7890625,17.5 55.2421875,17.5 L53.1640625,17.5 L53.1640625,14.2109375 Z M53.1640625,22.515625 L53.1640625,18.8828125 L55.59375,18.8828125 C57.2421875,18.8828125 58.109375,19.5 58.109375,20.6796875 C58.109375,21.875 57.2734375,22.515625 55.6953125,22.515625 L53.1640625,22.515625 Z M65.4375,16.7578125 C66.6796875,16.7578125 67.4921875,17.625 67.53125,18.9609375 L63.234375,18.9609375 C63.328125,17.6328125 64.1953125,16.7578125 65.4375,16.7578125 L65.4375,16.7578125 Z M67.5234375,21.703125 C67.2109375,22.3671875 66.515625,22.734375 65.5,22.734375 C64.15625,22.734375 63.2890625,21.7890625 63.234375,20.296875 L63.234375,20.203125 L69.2421875,20.203125 L69.2421875,19.6171875 C69.2421875,16.9453125 67.8125,15.328125 65.4453125,15.328125 C63.046875,15.328125 61.5234375,17.0546875 61.5234375,19.7734375 C61.5234375,22.4921875 63.015625,24.1640625 65.453125,24.1640625 C67.3984375,24.1640625 68.7578125,23.2265625 69.140625,21.703125 L67.5234375,21.703125 Z M71.0625,17.8984375 C71.0625,19.1640625 71.8125,19.890625 73.4296875,20.2734375 L74.9140625,20.6171875 C75.765625,20.8203125 76.1640625,21.1484375 76.1640625,21.65625 C76.1640625,22.3359375 75.421875,22.8046875 74.375,22.8046875 C73.359375,22.8046875 72.734375,22.3984375 72.5234375,21.7421875 L70.84375,21.7421875 C70.9921875,23.25 72.3125,24.1640625 74.3359375,24.1640625 C76.3671875,24.1640625 77.859375,23.09375 77.859375,21.4921875 C77.859375,20.2421875 77.1015625,19.546875 75.484375,19.171875 L74.0703125,18.84375 C73.1484375,18.6328125 72.71875,18.3125 72.71875,17.8046875 C72.71875,17.140625 73.4296875,16.6953125 74.3671875,16.6953125 C75.3203125,16.6953125 75.9296875,17.09375 76.0859375,17.71875 L77.6953125,17.71875 C77.53125,16.21875 76.28125,15.328125 74.3671875,15.328125 C72.4453125,15.328125 71.0625,16.390625 71.0625,17.8984375 L71.0625,17.8984375 Z M80.4765625,13.375 L80.4765625,15.53125 L79.125,15.53125 L79.125,16.9453125 L80.4765625,16.9453125 L80.4765625,21.75 C80.4765625,23.390625 81.21875,24.046875 83.0859375,24.046875 C83.4140625,24.046875 83.7265625,24.0078125 84,23.9609375 L84,22.5625 C83.765625,22.5859375 83.6171875,22.6015625 83.359375,22.6015625 C82.5234375,22.6015625 82.15625,22.2109375 82.15625,21.3203125 L82.15625,16.9453125 L84,16.9453125 L84,15.53125 L82.15625,15.53125 L82.15625,13.375 L80.4765625,13.375 Z M92.25,24 L92.25,15.9921875 L92.375,15.9921875 L98.1640625,24 L99.7421875,24 L99.7421875,12.7265625 L98.0390625,12.7265625 L98.0390625,20.734375 L97.9140625,20.734375 L92.125,12.7265625 L90.546875,12.7265625 L90.546875,24 L92.25,24 Z M105.867188,16.7578125 C107.109375,16.7578125 107.921875,17.625 107.960938,18.9609375 L103.664062,18.9609375 C103.757812,17.6328125 104.625,16.7578125 105.867188,16.7578125 L105.867188,16.7578125 Z M107.953125,21.703125 C107.640625,22.3671875 106.945312,22.734375 105.929688,22.734375 C104.585938,22.734375 103.71875,21.7890625 103.664062,20.296875 L103.664062,20.203125 L109.671875,20.203125 L109.671875,19.6171875 C109.671875,16.9453125 108.242188,15.328125 105.875,15.328125 C103.476562,15.328125 101.953125,17.0546875 101.953125,19.7734375 C101.953125,22.4921875 103.445312,24.1640625 105.882812,24.1640625 C107.828125,24.1640625 109.1875,23.2265625 109.570312,21.703125 L107.953125,21.703125 Z M122.765625,15.4921875 L121.085938,15.4921875 L119.570312,21.984375 L119.4375,21.984375 L117.6875,15.4921875 L116.078125,15.4921875 L114.328125,21.984375 L114.203125,21.984375 L112.679688,15.4921875 L110.976562,15.4921875 L113.320312,24 L115.046875,24 L116.796875,17.734375 L116.929688,17.734375 L118.6875,24 L120.429688,24 L122.765625,15.4921875 Z M136.367188,24 L138.226562,24 L134.15625,12.7265625 L132.273438,12.7265625 L128.203125,24 L130,24 L131.039062,21.0078125 L135.335938,21.0078125 L136.367188,24 Z M133.125,14.7734375 L133.257812,14.7734375 L134.890625,19.5390625 L131.484375,19.5390625 L133.125,14.7734375 Z M144.40625,15.3515625 C143.25,15.3515625 142.25,15.9296875 141.734375,16.8984375 L141.609375,16.8984375 L141.609375,15.4921875 L139.992188,15.4921875 L139.992188,26.828125 L141.671875,26.828125 L141.671875,22.7109375 L141.804688,22.7109375 C142.25,23.609375 143.210938,24.140625 144.421875,24.140625 C146.570312,24.140625 147.9375,22.4453125 147.9375,19.7421875 C147.9375,17.0390625 146.570312,15.3515625 144.40625,15.3515625 L144.40625,15.3515625 Z M143.929688,22.6328125 C142.523438,22.6328125 141.640625,21.5234375 141.640625,19.75 C141.640625,17.96875 142.523438,16.859375 143.9375,16.859375 C145.359375,16.859375 146.210938,17.9453125 146.210938,19.7421875 C146.210938,21.546875 145.359375,22.6328125 143.929688,22.6328125 L143.929688,22.6328125 Z M154.367188,15.3515625 C153.210938,15.3515625 152.210938,15.9296875 151.695312,16.8984375 L151.570312,16.8984375 L151.570312,15.4921875 L149.953125,15.4921875 L149.953125,26.828125 L151.632812,26.828125 L151.632812,22.7109375 L151.765625,22.7109375 C152.210938,23.609375 153.171875,24.140625 154.382812,24.140625 C156.53125,24.140625 157.898438,22.4453125 157.898438,19.7421875 C157.898438,17.0390625 156.53125,15.3515625 154.367188,15.3515625 L154.367188,15.3515625 Z M153.890625,22.6328125 C152.484375,22.6328125 151.601562,21.5234375 151.601562,19.75 C151.601562,17.96875 152.484375,16.859375 153.898438,16.859375 C155.320312,16.859375 156.171875,17.9453125 156.171875,19.7421875 C156.171875,21.546875 155.320312,22.6328125 153.890625,22.6328125 L153.890625,22.6328125 Z"/>
    <path d="M50.5878906,40.6962891 C50.5878906,42.2070312 51.75,43.2324219 53.4042969,43.2324219 C55.1884766,43.2324219 56.2753906,42.1318359 56.2753906,40.2519531 L56.2753906,33.1357422 L55.0449219,33.1357422 L55.0449219,40.2451172 C55.0449219,41.4550781 54.4501953,42.0976562 53.3974609,42.0976562 C52.4677734,42.0976562 51.8388672,41.5234375 51.8115234,40.6962891 L50.5878906,40.6962891 Z M64.6015625,35.6308594 L63.4257812,35.6308594 L63.4257812,39.9921875 C63.4257812,41.2841797 62.7148438,42.0566406 61.4160156,42.0566406 C60.2402344,42.0566406 59.7480469,41.4414062 59.7480469,40.1152344 L59.7480469,35.6308594 L58.5722656,35.6308594 L58.5722656,40.4023438 C58.5722656,42.1455078 59.4335938,43.1298828 61.0878906,43.1298828 C62.2158203,43.1298828 63.0019531,42.6650391 63.3710938,41.8447266 L63.4804688,41.8447266 L63.4804688,43 L64.6015625,43 L64.6015625,35.6308594 Z M66.8847656,43 L68.0605469,43 L68.0605469,32.7050781 L66.8847656,32.7050781 L66.8847656,43 Z M70.9726562,45.6660156 C72.2783203,45.6660156 72.8662109,45.1601562 73.4951172,43.4511719 L76.3730469,35.6308594 L75.1220703,35.6308594 L73.1054688,41.6943359 L72.9960938,41.6943359 L70.9726562,35.6308594 L69.7011719,35.6308594 L72.4287109,43.0068359 L72.2919922,43.4443359 C71.984375,44.3330078 71.6152344,44.6542969 70.9384766,44.6542969 C70.7744141,44.6542969 70.5898438,44.6474609 70.4462891,44.6201172 L70.4462891,45.625 C70.6103516,45.6523438 70.8154297,45.6660156 70.9726562,45.6660156 L70.9726562,45.6660156 Z M81.828125,35.9111328 L81.828125,35.9179688 L83.0175781,35.9179688 L83.0175781,35.9111328 C83.0175781,34.7490234 83.796875,33.9765625 84.9521484,33.9765625 C86.0390625,33.9765625 86.8798828,34.7353516 86.8798828,35.7197266 C86.8798828,36.5126953 86.5722656,37.0458984 85.3007812,38.4267578 L81.8896484,42.1523438 L81.8896484,43 L88.2744141,43 L88.2744141,41.8925781 L83.6533203,41.8925781 L83.6533203,41.7832031 L86.0253906,39.2333984 C87.6455078,37.4970703 88.1103516,36.6972656 88.1103516,35.671875 C88.1103516,34.1064453 86.7568359,32.9033203 84.9863281,32.9033203 C83.1542969,32.9033203 81.828125,34.1611328 81.828125,35.9111328 L81.828125,35.9111328 Z M93.6611328,43.2324219 C95.8759766,43.2324219 97.1474609,41.359375 97.1474609,38.0849609 C97.1474609,34.8173828 95.8554688,32.9033203 93.6611328,32.9033203 C91.453125,32.9033203 90.1611328,34.8105469 90.1611328,38.0644531 C90.1611328,41.3457031 91.4394531,43.2324219 93.6611328,43.2324219 L93.6611328,43.2324219 Z M93.6611328,42.1591797 C92.2050781,42.1591797 91.3984375,40.703125 91.3984375,38.0644531 C91.3984375,35.4599609 92.21875,33.9833984 93.6611328,33.9833984 C95.1035156,33.9833984 95.9101562,35.4462891 95.9101562,38.0644531 C95.9101562,40.7099609 95.1171875,42.1591797 93.6611328,42.1591797 L93.6611328,42.1591797 Z M101.522461,43 L102.75293,43 L102.75293,33.1357422 L101.529297,33.1357422 L98.9042969,35.0224609 L98.9042969,36.3212891 L101.413086,34.5029297 L101.522461,34.5029297 L101.522461,43 Z M108.946289,43.2324219 C110.990234,43.2324219 112.391602,41.8652344 112.391602,39.8623047 C112.391602,37.9208984 111.079102,36.5605469 109.206055,36.5605469 C108.296875,36.5605469 107.599609,36.8408203 107.121094,37.4013672 L107.011719,37.4013672 L107.291992,34.2363281 L111.831055,34.2363281 L111.831055,33.1357422 L106.328125,33.1357422 L105.788086,38.7275391 L106.943359,38.7275391 C107.34668,38.0234375 108.084961,37.6201172 108.980469,37.6201172 C110.272461,37.6201172 111.161133,38.5429688 111.161133,39.8964844 C111.161133,41.25 110.279297,42.1523438 108.959961,42.1523438 C107.797852,42.1523438 106.950195,41.4414062 106.84082,40.375 L105.630859,40.375 C105.740234,42.0771484 107.080078,43.2324219 108.946289,43.2324219 L108.946289,43.2324219 Z" opacity=".7"/>
    <path d="M30.9510334,34.7233644 C30.7670079,35.2568622 30.5743021,35.7660311 30.3694436,36.2543467 C29.8694499,37.4082311 29.2791797,38.4700133 28.5951606,39.4449067 C27.6646169,40.7760444 26.9007377,41.6970667 26.3122035,42.2079733 C25.4007568,43.04732 24.4233386,43.4782889 23.3764769,43.50088 C22.6247504,43.50088 21.720248,43.2871333 20.6647059,42.8544267 C19.6074277,42.42172 18.6352178,42.2079733 17.7463402,42.2079733 C16.8140604,42.2079733 15.8140731,42.42172 14.7446423,42.8544267 C13.6734754,43.2871333 12.8106391,43.5147822 12.1509253,43.5356356 C11.1474658,43.57908 10.1474785,43.1376844 9.14922734,42.2079733 C8.51208267,41.6518844 7.71521781,40.6978444 6.76036884,39.3475911 C5.73607631,37.9052356 4.89407313,36.2317556 4.2343593,34.3236756 C3.52777107,32.2644089 3.1736089,30.26944 3.1736089,28.3387689 C3.1736089,26.1265778 3.65103339,24.2184978 4.60761844,22.6197422 C5.35934499,21.3355244 6.35933227,20.3224 7.61105246,19.5786311 C8.86277266,18.8348622 10.215186,18.4560267 11.6717647,18.4316978 C12.4686296,18.4316978 13.5137552,18.6784622 14.8123498,19.1633022 C16.1074722,19.64988 16.9390588,19.8966444 17.3036375,19.8966444 C17.5762035,19.8966444 18.4998029,19.6081733 20.0657552,19.0329689 C21.5466391,18.4994711 22.7966232,18.2787733 23.8209157,18.3656622 C26.595186,18.5898356 28.6784928,19.6846356 30.065628,21.6570133 C27.5847568,23.1619289 26.3573418,25.2698533 26.3816471,27.9738356 C26.4042162,30.0800222 27.1663593,31.83344 28.6663402,33.2254 C29.3468871,33.8701156 30.1072941,34.3688578 30.9510334,34.7233644 L30.9510334,34.7233644 Z M23.9719555,10.5300222 C23.9945246,10.75072 24.0049412,10.9714178 24.0049412,11.1903778 C24.0049412,12.8412667 23.4025183,14.3826756 22.2028808,15.8093911 C20.7532464,17.5054622 18.9997965,18.4855689 17.098779,18.3309067 C17.0744738,18.1328 17.0605851,17.9242667 17.0605851,17.7053067 C17.0605851,16.1204533 17.7498124,14.4243822 18.9737552,13.0376356 C19.5848585,12.3355733 20.3626264,11.75168 21.3035866,11.2859556 C22.2445469,10.8271822 23.1351606,10.5734667 23.9719555,10.5300222 L23.9719555,10.5300222 Z"/>
  </g>
</svg>
