<svg xmlns="http://www.w3.org/2000/svg" width="184" height="54" viewBox="0 0 184 54" xmlns:xlink="http://www.w3.org/1999/xlink">
  <defs>
    <path id="a" d="M19.984379,10.8171145 L13.6857231,7.19160028 C13.6857231,7.19160028 2.21094202,0.58587701 1.53637992,0.197493377 C0.861817813,-0.190690161 0.189664144,0.0444210028 0.189664144,0.855804636 L0.189664144,14.9598732 L0.189664144,29.3500771 C0.189664144,29.9583647 0.670146641,30.2206887 1.25599811,29.8835293 C1.84184957,29.5457696 13.6857231,22.7283463 13.6857231,22.7283463 L19.9841783,19.1032323 C19.9841783,19.1032323 25.3282917,16.0271779 26.0387796,15.6185847 C26.7490668,15.2091911 26.6808278,14.6483259 26.0813286,14.3265738 C25.48203,14.0046216 19.984379,10.8171145 19.984379,10.8171145 L19.984379,10.8171145 Z"/>
    <linearGradient id="b" x1="50.006%" x2="50.006%" y1="-.007%" y2="99.996%">
      <stop stop-color="#257CB0" offset="0%"/>
      <stop stop-color="#4A93B5" offset="28.63%"/>
      <stop stop-color="#78BCBB" offset="76.7%"/>
      <stop stop-color="#89CFBD" offset="100%"/>
    </linearGradient>
    <path id="d" d="M19.984379,10.8171145 L13.6857231,7.19160028 C13.6857231,7.19160028 2.21094202,0.58587701 1.53637992,0.197493377 C0.861817813,-0.190690161 0.189664144,0.0444210028 0.189664144,0.855804636 L0.189664144,14.9598732 L0.189664144,29.3500771 C0.189664144,29.9583647 0.670146641,30.2206887 1.25599811,29.8835293 C1.84184957,29.5457696 13.6857231,22.7283463 13.6857231,22.7283463 L19.9841783,19.1032323 C19.9841783,19.1032323 25.3282917,16.0271779 26.0387796,15.6185847 C26.7490668,15.2091911 26.6808278,14.6483259 26.0813286,14.3265738 C25.48203,14.0046216 19.984379,10.8171145 19.984379,10.8171145 L19.984379,10.8171145 Z"/>
    <linearGradient id="e" x1="0%" x2="100.005%" y1="49.996%" y2="49.996%">
      <stop stop-color="#52C1AD" offset="0%"/>
      <stop stop-color="#DEE89A" offset="100%"/>
    </linearGradient>
    <path id="g" d="M19.984379,10.8171145 L13.6857231,7.19160028 C13.6857231,7.19160028 2.21094202,0.58587701 1.53637992,0.197493377 C0.861817813,-0.190690161 0.189664144,0.0444210028 0.189664144,0.855804636 L0.189664144,14.9598732 L0.189664144,29.3500771 C0.189664144,29.9583647 0.670146641,30.2206887 1.25599811,29.8835293 C1.84184957,29.5457696 13.6857231,22.7283463 13.6857231,22.7283463 L19.9841783,19.1032323 C19.9841783,19.1032323 25.3282917,16.0271779 26.0387796,15.6185847 C26.7490668,15.2091911 26.6808278,14.6483259 26.0813286,14.3265738 C25.48203,14.0046216 19.984379,10.8171145 19.984379,10.8171145 L19.984379,10.8171145 Z"/>
    <linearGradient id="h" x1="50%" x2="50%" y1="-.02%" y2="99.979%">
      <stop stop-color="#EC413D" offset="0%"/>
      <stop stop-color="#DA4452" offset="16.68%"/>
      <stop stop-color="#B0487A" offset="57.48%"/>
      <stop stop-color="#954A92" offset="86.19%"/>
      <stop stop-color="#8A4A9D" offset="100%"/>
    </linearGradient>
    <path id="j" d="M19.984379,10.8171145 L13.6857231,7.19160028 C13.6857231,7.19160028 2.21094202,0.58587701 1.53637992,0.197493377 C0.861817813,-0.190690161 0.189664144,0.0444210028 0.189664144,0.855804636 L0.189664144,14.9598732 L0.189664144,29.3500771 C0.189664144,29.9583647 0.670146641,30.2206887 1.25599811,29.8835293 C1.84184957,29.5457696 13.6857231,22.7283463 13.6857231,22.7283463 L19.9841783,19.1032323 C19.9841783,19.1032323 25.3282917,16.0271779 26.0387796,15.6185847 C26.7490668,15.2091911 26.6808278,14.6483259 26.0813286,14.3265738 C25.48203,14.0046216 19.984379,10.8171145 19.984379,10.8171145 L19.984379,10.8171145 Z"/>
    <linearGradient id="k" x1="50.002%" x2="50.002%" y1="-.041%" y2="99.97%">
      <stop stop-color="#F58879" offset="0%"/>
      <stop stop-color="#F69079" offset="11.94%"/>
      <stop stop-color="#FCB877" offset="71.28%"/>
      <stop stop-color="#FEC874" offset="100%"/>
    </linearGradient>
  </defs>
  <g fill="none" fill-rule="evenodd">
    <path fill="#FFFFFF" d="M58.5703125,22.40625 L53.1640625,22.40625 L53.1640625,19.0234375 L58.28125,19.0234375 L58.28125,17.5078125 L53.1640625,17.5078125 L53.1640625,14.3203125 L58.5703125,14.3203125 L58.5703125,12.7265625 L51.4140625,12.7265625 L51.4140625,24 L58.5703125,24 L58.5703125,22.40625 Z M64.0078125,24.140625 C65.1796875,24.140625 66.171875,23.5859375 66.6796875,22.65625 L66.8125,22.65625 L66.8125,24 L68.421875,24 L68.421875,12.171875 L66.7421875,12.171875 L66.7421875,16.84375 L66.6171875,16.84375 C66.15625,15.90625 65.171875,15.3515625 64.0078125,15.3515625 C61.859375,15.3515625 60.4765625,17.0546875 60.4765625,19.7421875 C60.4765625,22.4375 61.84375,24.140625 64.0078125,24.140625 L64.0078125,24.140625 Z M64.484375,16.859375 C65.890625,16.859375 66.7734375,17.9765625 66.7734375,19.75 C66.7734375,21.53125 65.8984375,22.6328125 64.484375,22.6328125 C63.0625,22.6328125 62.2109375,21.546875 62.2109375,19.7421875 C62.2109375,17.953125 63.0703125,16.859375 64.484375,16.859375 L64.484375,16.859375 Z M70.96875,24 L72.640625,24 L72.640625,15.4921875 L70.96875,15.4921875 L70.96875,24 Z M71.8046875,14 C72.4296875,14 72.890625,13.5546875 72.890625,12.9765625 C72.890625,12.390625 72.4296875,11.9453125 71.8046875,11.9453125 C71.1796875,11.9453125 70.71875,12.390625 70.71875,12.9765625 C70.71875,13.5546875 71.1796875,14 71.8046875,14 L71.8046875,14 Z M75.703125,13.375 L75.703125,15.53125 L74.3515625,15.53125 L74.3515625,16.9453125 L75.703125,16.9453125 L75.703125,21.75 C75.703125,23.390625 76.4453125,24.046875 78.3125,24.046875 C78.640625,24.046875 78.953125,24.0078125 79.2265625,23.9609375 L79.2265625,22.5625 C78.9921875,22.5859375 78.84375,22.6015625 78.5859375,22.6015625 C77.75,22.6015625 77.3828125,22.2109375 77.3828125,21.3203125 L77.3828125,16.9453125 L79.2265625,16.9453125 L79.2265625,15.53125 L77.3828125,15.53125 L77.3828125,13.375 L75.703125,13.375 Z M84.796875,24.1640625 C87.28125,24.1640625 88.8046875,22.5 88.8046875,19.7421875 C88.8046875,17 87.2734375,15.328125 84.796875,15.328125 C82.3125,15.328125 80.78125,17 80.78125,19.7421875 C80.78125,22.5 82.3046875,24.1640625 84.796875,24.1640625 L84.796875,24.1640625 Z M84.796875,22.671875 C83.3359375,22.671875 82.515625,21.6015625 82.515625,19.7421875 C82.515625,17.8984375 83.3359375,16.8203125 84.796875,16.8203125 C86.25,16.8203125 87.078125,17.8984375 87.078125,19.7421875 C87.078125,21.59375 86.25,22.671875 84.796875,22.671875 L84.796875,22.671875 Z M90.8203125,24 L92.5,24 L92.5,18.9765625 C92.5,17.78125 93.3984375,16.9765625 94.671875,16.9765625 C94.96875,16.9765625 95.46875,17.03125 95.609375,17.078125 L95.609375,15.421875 C95.4296875,15.375 95.109375,15.3515625 94.859375,15.3515625 C93.75,15.3515625 92.8046875,15.9609375 92.5625,16.796875 L92.4375,16.796875 L92.4375,15.4921875 L90.8203125,15.4921875 L90.8203125,24 Z M98.515625,17.1875 L99.796875,12.7265625 L98.0625,12.7265625 L97.0703125,17.1875 L98.515625,17.1875 Z M101.882812,17.8984375 C101.882812,19.1640625 102.632812,19.890625 104.25,20.2734375 L105.734375,20.6171875 C106.585938,20.8203125 106.984375,21.1484375 106.984375,21.65625 C106.984375,22.3359375 106.242188,22.8046875 105.195312,22.8046875 C104.179688,22.8046875 103.554688,22.3984375 103.34375,21.7421875 L101.664062,21.7421875 C101.8125,23.25 103.132812,24.1640625 105.15625,24.1640625 C107.1875,24.1640625 108.679688,23.09375 108.679688,21.4921875 C108.679688,20.2421875 107.921875,19.546875 106.304688,19.171875 L104.890625,18.84375 C103.96875,18.6328125 103.539062,18.3125 103.539062,17.8046875 C103.539062,17.140625 104.25,16.6953125 105.1875,16.6953125 C106.140625,16.6953125 106.75,17.09375 106.90625,17.71875 L108.515625,17.71875 C108.351562,16.21875 107.101562,15.328125 105.1875,15.328125 C103.265625,15.328125 101.882812,16.390625 101.882812,17.8984375 L101.882812,17.8984375 Z M119.898438,24.2734375 C122.414062,24.2734375 124.265625,22.7890625 124.578125,20.5625 L122.835938,20.5625 C122.523438,21.8359375 121.390625,22.640625 119.898438,22.640625 C117.867188,22.640625 116.601562,20.9921875 116.601562,18.3671875 C116.601562,15.734375 117.867188,14.0859375 119.890625,14.0859375 C121.375,14.0859375 122.507812,14.9765625 122.835938,16.359375 L124.578125,16.359375 C124.296875,14.0625 122.375,12.453125 119.890625,12.453125 C116.757812,12.453125 114.8125,14.7109375 114.8125,18.3671875 C114.8125,22.015625 116.765625,24.2734375 119.898438,24.2734375 L119.898438,24.2734375 Z M126.757812,24 L128.4375,24 L128.4375,19.03125 C128.4375,17.7421875 129.203125,16.875 130.578125,16.875 C131.765625,16.875 132.398438,17.5625 132.398438,18.921875 L132.398438,24 L134.078125,24 L134.078125,18.5078125 C134.078125,16.484375 132.960938,15.3359375 131.148438,15.3359375 C129.867188,15.3359375 128.96875,15.90625 128.554688,16.859375 L128.421875,16.859375 L128.421875,12.171875 L126.757812,12.171875 L126.757812,24 Z M140.03125,24.1640625 C142.515625,24.1640625 144.039062,22.5 144.039062,19.7421875 C144.039062,17 142.507812,15.328125 140.03125,15.328125 C137.546875,15.328125 136.015625,17 136.015625,19.7421875 C136.015625,22.5 137.539062,24.1640625 140.03125,24.1640625 L140.03125,24.1640625 Z M140.03125,22.671875 C138.570312,22.671875 137.75,21.6015625 137.75,19.7421875 C137.75,17.8984375 138.570312,16.8203125 140.03125,16.8203125 C141.484375,16.8203125 142.3125,17.8984375 142.3125,19.7421875 C142.3125,21.59375 141.484375,22.671875 140.03125,22.671875 L140.03125,22.671875 Z M146.085938,24 L147.757812,24 L147.757812,15.4921875 L146.085938,15.4921875 L146.085938,24 Z M146.921875,14 C147.546875,14 148.007812,13.5546875 148.007812,12.9765625 C148.007812,12.390625 147.546875,11.9453125 146.921875,11.9453125 C146.296875,11.9453125 145.835938,12.390625 145.835938,12.9765625 C145.835938,13.5546875 146.296875,14 146.921875,14 L146.921875,14 Z M157.429688,18.2734375 C157.210938,16.5703125 155.921875,15.328125 153.789062,15.328125 C151.3125,15.328125 149.804688,16.9921875 149.804688,19.71875 C149.804688,22.4921875 151.320312,24.1640625 153.796875,24.1640625 C155.898438,24.1640625 157.210938,22.9765625 157.429688,21.265625 L155.796875,21.265625 C155.578125,22.1796875 154.851562,22.6640625 153.789062,22.6640625 C152.390625,22.6640625 151.523438,21.5625 151.523438,19.71875 C151.523438,17.90625 152.382812,16.828125 153.789062,16.828125 C154.914062,16.828125 155.601562,17.4453125 155.796875,18.2734375 L157.429688,18.2734375 Z M162.835938,16.7578125 C164.078125,16.7578125 164.890625,17.625 164.929688,18.9609375 L160.632812,18.9609375 C160.726562,17.6328125 161.59375,16.7578125 162.835938,16.7578125 L162.835938,16.7578125 Z M164.921875,21.703125 C164.609375,22.3671875 163.914062,22.734375 162.898438,22.734375 C161.554688,22.734375 160.6875,21.7890625 160.632812,20.296875 L160.632812,20.203125 L166.640625,20.203125 L166.640625,19.6171875 C166.640625,16.9453125 165.210938,15.328125 162.84375,15.328125 C160.445312,15.328125 158.921875,17.0546875 158.921875,19.7734375 C158.921875,22.4921875 160.414062,24.1640625 162.851562,24.1640625 C164.796875,24.1640625 166.15625,23.2265625 166.539062,21.703125 L164.921875,21.703125 Z"/>
    <g transform="translate(4 13)">
      <mask id="c" fill="white">
        <use xlink:href="#a"/>
      </mask>
      <polygon fill="url(#b)" points=".19 -.465 .19 14.96 .19 30.385 15.794 14.96" mask="url(#c)"/>
    </g>
    <g transform="translate(4 13)">
      <mask id="f" fill="white">
        <use xlink:href="#d"/>
      </mask>
      <polygon fill="url(#e)" points="15.794 14.96 19.984 10.817 13.686 7.192 .19 -.577 .19 -.465" mask="url(#f)"/>
    </g>
    <g transform="translate(4 13)">
      <mask id="i" fill="white">
        <use xlink:href="#g"/>
      </mask>
      <polygon fill="url(#h)" points="15.794 14.96 .19 30.385 .19 30.497 13.686 22.729 19.984 19.103" mask="url(#i)"/>
    </g>
    <g transform="translate(4 13)">
      <mask id="l" fill="white">
        <use xlink:href="#j"/>
      </mask>
      <polygon fill="url(#k)" points="19.984 10.817 15.794 14.96 19.984 19.103 27.182 14.96" mask="url(#l)"/>
    </g>
    <path fill="#FFFFFF" fill-opacity=".7" d="M57.6699219,43 L58.9619141,43 L55.3251953,33.1357422 L54.1083984,33.1357422 L50.4716797,43 L51.7636719,43 L52.7548828,40.1767578 L56.6787109,40.1767578 L57.6699219,43 Z M54.6621094,34.7285156 L54.7714844,34.7285156 L56.3164062,39.1308594 L53.1171875,39.1308594 L54.6621094,34.7285156 Z M66.5019531,35.6308594 L65.3261719,35.6308594 L65.3261719,39.9921875 C65.3261719,41.2841797 64.6152344,42.0566406 63.3164062,42.0566406 C62.140625,42.0566406 61.6484375,41.4414062 61.6484375,40.1152344 L61.6484375,35.6308594 L60.4726562,35.6308594 L60.4726562,40.4023438 C60.4726562,42.1455078 61.3339844,43.1298828 62.9882812,43.1298828 C64.1162109,43.1298828 64.9023438,42.6650391 65.2714844,41.8447266 L65.3808594,41.8447266 L65.3808594,43 L66.5019531,43 L66.5019531,35.6308594 Z M71.6972656,41.8515625 C70.3300781,41.8515625 69.5644531,40.8125 69.5644531,39.2060547 C69.5644531,37.5996094 70.3300781,36.5605469 71.6972656,36.5605469 C73.0576172,36.5605469 73.8847656,37.5996094 73.8847656,39.2060547 C73.8847656,40.8125 73.0644531,41.8515625 71.6972656,41.8515625 L71.6972656,41.8515625 Z M71.7519531,45.8300781 C73.7617188,45.8300781 75.0332031,44.7773438 75.0332031,43.1298828 L75.0332031,35.6308594 L73.9121094,35.6308594 L73.9121094,36.7998047 L73.8027344,36.7998047 C73.3789062,36.0068359 72.4697266,35.5009766 71.4375,35.5009766 C69.5439453,35.5009766 68.3476562,36.9980469 68.3476562,39.2060547 C68.3476562,41.4140625 69.5302734,42.890625 71.4375,42.890625 C72.4492188,42.890625 73.2832031,42.4326172 73.7480469,41.6191406 L73.8574219,41.6191406 L73.8574219,43.0683594 C73.8574219,44.1552734 73.0712891,44.8046875 71.7519531,44.8046875 C70.6923828,44.8046875 70.0361328,44.4150391 69.90625,43.8134766 L68.6621094,43.8134766 C68.8398438,45.0302734 69.9746094,45.8300781 71.7519531,45.8300781 L71.7519531,45.8300781 Z M83.2089844,35.6308594 L82.0332031,35.6308594 L82.0332031,39.9921875 C82.0332031,41.2841797 81.3222656,42.0566406 80.0234375,42.0566406 C78.8476562,42.0566406 78.3554688,41.4414062 78.3554688,40.1152344 L78.3554688,35.6308594 L77.1796875,35.6308594 L77.1796875,40.4023438 C77.1796875,42.1455078 78.0410156,43.1298828 79.6953125,43.1298828 C80.8232422,43.1298828 81.609375,42.6650391 81.9785156,41.8447266 L82.0878906,41.8447266 L82.0878906,43 L83.2089844,43 L83.2089844,35.6308594 Z M85.2529297,37.6474609 C85.2529297,38.7138672 85.8818359,39.3085938 87.2626953,39.6435547 L88.5273438,39.9511719 C89.3134766,40.1425781 89.6962891,40.484375 89.6962891,40.9902344 C89.6962891,41.6669922 88.9853516,42.1386719 87.9941406,42.1386719 C87.0507812,42.1386719 86.4628906,41.7421875 86.2646484,41.1201172 L85.0546875,41.1201172 C85.1845703,42.34375 86.3125,43.1298828 87.953125,43.1298828 C89.6279297,43.1298828 90.90625,42.2207031 90.90625,40.9013672 C90.90625,39.8417969 90.2363281,39.2402344 88.8486328,38.9052734 L87.7138672,38.6318359 C86.8457031,38.4199219 86.4355469,38.1054688 86.4355469,37.5996094 C86.4355469,36.9433594 87.1191406,36.4990234 87.9941406,36.4990234 C88.8828125,36.4990234 89.4570312,36.8886719 89.6142578,37.4765625 L90.7763672,37.4765625 C90.6191406,36.2666016 89.5458984,35.5009766 88.0009766,35.5009766 C86.4355469,35.5009766 85.2529297,36.4238281 85.2529297,37.6474609 L85.2529297,37.6474609 Z M93.2441406,33.7236328 L93.2441406,35.6308594 L92.0546875,35.6308594 L92.0546875,36.6152344 L93.2441406,36.6152344 L93.2441406,41.0859375 C93.2441406,42.4941406 93.8525391,43.0546875 95.3701172,43.0546875 C95.6025391,43.0546875 95.828125,43.0273438 96.0605469,42.9863281 L96.0605469,41.9951172 C95.8417969,42.015625 95.7255859,42.0224609 95.5136719,42.0224609 C94.7480469,42.0224609 94.4199219,41.6533203 94.4199219,40.7851562 L94.4199219,36.6152344 L96.0605469,36.6152344 L96.0605469,35.6308594 L94.4199219,35.6308594 L94.4199219,33.7236328 L93.2441406,33.7236328 Z M101.720703,35.9111328 L101.720703,35.9179688 L102.910156,35.9179688 L102.910156,35.9111328 C102.910156,34.7490234 103.689453,33.9765625 104.844727,33.9765625 C105.931641,33.9765625 106.772461,34.7353516 106.772461,35.7197266 C106.772461,36.5126953 106.464844,37.0458984 105.193359,38.4267578 L101.782227,42.1523438 L101.782227,43 L108.166992,43 L108.166992,41.8925781 L103.545898,41.8925781 L103.545898,41.7832031 L105.917969,39.2333984 C107.538086,37.4970703 108.00293,36.6972656 108.00293,35.671875 C108.00293,34.1064453 106.649414,32.9033203 104.878906,32.9033203 C103.046875,32.9033203 101.720703,34.1611328 101.720703,35.9111328 L101.720703,35.9111328 Z M113.553711,43.2324219 C115.768555,43.2324219 117.040039,41.359375 117.040039,38.0849609 C117.040039,34.8173828 115.748047,32.9033203 113.553711,32.9033203 C111.345703,32.9033203 110.053711,34.8105469 110.053711,38.0644531 C110.053711,41.3457031 111.332031,43.2324219 113.553711,43.2324219 L113.553711,43.2324219 Z M113.553711,42.1591797 C112.097656,42.1591797 111.291016,40.703125 111.291016,38.0644531 C111.291016,35.4599609 112.111328,33.9833984 113.553711,33.9833984 C114.996094,33.9833984 115.802734,35.4462891 115.802734,38.0644531 C115.802734,40.7099609 115.009766,42.1591797 113.553711,42.1591797 L113.553711,42.1591797 Z M121.415039,43 L122.645508,43 L122.645508,33.1357422 L121.421875,33.1357422 L118.796875,35.0224609 L118.796875,36.3212891 L121.305664,34.5029297 L121.415039,34.5029297 L121.415039,43 Z M128.838867,43.2324219 C130.882812,43.2324219 132.28418,41.8652344 132.28418,39.8623047 C132.28418,37.9208984 130.97168,36.5605469 129.098633,36.5605469 C128.189453,36.5605469 127.492188,36.8408203 127.013672,37.4013672 L126.904297,37.4013672 L127.18457,34.2363281 L131.723633,34.2363281 L131.723633,33.1357422 L126.220703,33.1357422 L125.680664,38.7275391 L126.835938,38.7275391 C127.239258,38.0234375 127.977539,37.6201172 128.873047,37.6201172 C130.165039,37.6201172 131.053711,38.5429688 131.053711,39.8964844 C131.053711,41.25 130.171875,42.1523438 128.852539,42.1523438 C127.69043,42.1523438 126.842773,41.4414062 126.733398,40.375 L125.523438,40.375 C125.632812,42.0771484 126.972656,43.2324219 128.838867,43.2324219 L128.838867,43.2324219 Z"/>
  </g>
</svg>
