<svg xmlns="http://www.w3.org/2000/svg" width="184" height="54" viewBox="0 0 184 54" xmlns:xlink="http://www.w3.org/1999/xlink">
  <defs>
    <path id="a" d="M19.984379,10.8171145 L13.6857231,7.19160028 C13.6857231,7.19160028 2.21094202,0.58587701 1.53637992,0.197493377 C0.861817813,-0.190690161 0.189664144,0.0444210028 0.189664144,0.855804636 L0.189664144,14.9598732 L0.189664144,29.3500771 C0.189664144,29.9583647 0.670146641,30.2206887 1.25599811,29.8835293 C1.84184957,29.5457696 13.6857231,22.7283463 13.6857231,22.7283463 L19.9841783,19.1032323 C19.9841783,19.1032323 25.3282917,16.0271779 26.0387796,15.6185847 C26.7490668,15.2091911 26.6808278,14.6483259 26.0813286,14.3265738 C25.48203,14.0046216 19.984379,10.8171145 19.984379,10.8171145 L19.984379,10.8171145 Z"/>
    <linearGradient id="b" x1="50.006%" x2="50.006%" y1="-.007%" y2="99.996%">
      <stop stop-color="#257CB0" offset="0%"/>
      <stop stop-color="#4A93B5" offset="28.63%"/>
      <stop stop-color="#78BCBB" offset="76.7%"/>
      <stop stop-color="#89CFBD" offset="100%"/>
    </linearGradient>
    <path id="d" d="M19.984379,10.8171145 L13.6857231,7.19160028 C13.6857231,7.19160028 2.21094202,0.58587701 1.53637992,0.197493377 C0.861817813,-0.190690161 0.189664144,0.0444210028 0.189664144,0.855804636 L0.189664144,14.9598732 L0.189664144,29.3500771 C0.189664144,29.9583647 0.670146641,30.2206887 1.25599811,29.8835293 C1.84184957,29.5457696 13.6857231,22.7283463 13.6857231,22.7283463 L19.9841783,19.1032323 C19.9841783,19.1032323 25.3282917,16.0271779 26.0387796,15.6185847 C26.7490668,15.2091911 26.6808278,14.6483259 26.0813286,14.3265738 C25.48203,14.0046216 19.984379,10.8171145 19.984379,10.8171145 L19.984379,10.8171145 Z"/>
    <linearGradient id="e" x1="0%" x2="100.005%" y1="49.996%" y2="49.996%">
      <stop stop-color="#52C1AD" offset="0%"/>
      <stop stop-color="#DEE89A" offset="100%"/>
    </linearGradient>
    <path id="g" d="M19.984379,10.8171145 L13.6857231,7.19160028 C13.6857231,7.19160028 2.21094202,0.58587701 1.53637992,0.197493377 C0.861817813,-0.190690161 0.189664144,0.0444210028 0.189664144,0.855804636 L0.189664144,14.9598732 L0.189664144,29.3500771 C0.189664144,29.9583647 0.670146641,30.2206887 1.25599811,29.8835293 C1.84184957,29.5457696 13.6857231,22.7283463 13.6857231,22.7283463 L19.9841783,19.1032323 C19.9841783,19.1032323 25.3282917,16.0271779 26.0387796,15.6185847 C26.7490668,15.2091911 26.6808278,14.6483259 26.0813286,14.3265738 C25.48203,14.0046216 19.984379,10.8171145 19.984379,10.8171145 L19.984379,10.8171145 Z"/>
    <linearGradient id="h" x1="50%" x2="50%" y1="-.02%" y2="99.979%">
      <stop stop-color="#EC413D" offset="0%"/>
      <stop stop-color="#DA4452" offset="16.68%"/>
      <stop stop-color="#B0487A" offset="57.48%"/>
      <stop stop-color="#954A92" offset="86.19%"/>
      <stop stop-color="#8A4A9D" offset="100%"/>
    </linearGradient>
    <path id="j" d="M19.984379,10.8171145 L13.6857231,7.19160028 C13.6857231,7.19160028 2.21094202,0.58587701 1.53637992,0.197493377 C0.861817813,-0.190690161 0.189664144,0.0444210028 0.189664144,0.855804636 L0.189664144,14.9598732 L0.189664144,29.3500771 C0.189664144,29.9583647 0.670146641,30.2206887 1.25599811,29.8835293 C1.84184957,29.5457696 13.6857231,22.7283463 13.6857231,22.7283463 L19.9841783,19.1032323 C19.9841783,19.1032323 25.3282917,16.0271779 26.0387796,15.6185847 C26.7490668,15.2091911 26.6808278,14.6483259 26.0813286,14.3265738 C25.48203,14.0046216 19.984379,10.8171145 19.984379,10.8171145 L19.984379,10.8171145 Z"/>
    <linearGradient id="k" x1="50.002%" x2="50.002%" y1="-.041%" y2="99.97%">
      <stop stop-color="#F58879" offset="0%"/>
      <stop stop-color="#F69079" offset="11.94%"/>
      <stop stop-color="#FCB877" offset="71.28%"/>
      <stop stop-color="#FEC874" offset="100%"/>
    </linearGradient>
  </defs>
  <g fill="none" fill-rule="evenodd">
    <path fill="#FFFFFF" d="M58.5703125,22.40625 L53.1640625,22.40625 L53.1640625,19.0234375 L58.28125,19.0234375 L58.28125,17.5078125 L53.1640625,17.5078125 L53.1640625,14.3203125 L58.5703125,14.3203125 L58.5703125,12.7265625 L51.4140625,12.7265625 L51.4140625,24 L58.5703125,24 L58.5703125,22.40625 Z M64.0078125,24.140625 C65.1796875,24.140625 66.171875,23.5859375 66.6796875,22.65625 L66.8125,22.65625 L66.8125,24 L68.421875,24 L68.421875,12.171875 L66.7421875,12.171875 L66.7421875,16.84375 L66.6171875,16.84375 C66.15625,15.90625 65.171875,15.3515625 64.0078125,15.3515625 C61.859375,15.3515625 60.4765625,17.0546875 60.4765625,19.7421875 C60.4765625,22.4375 61.84375,24.140625 64.0078125,24.140625 L64.0078125,24.140625 Z M64.484375,16.859375 C65.890625,16.859375 66.7734375,17.9765625 66.7734375,19.75 C66.7734375,21.53125 65.8984375,22.6328125 64.484375,22.6328125 C63.0625,22.6328125 62.2109375,21.546875 62.2109375,19.7421875 C62.2109375,17.953125 63.0703125,16.859375 64.484375,16.859375 L64.484375,16.859375 Z M70.96875,24 L72.640625,24 L72.640625,15.4921875 L70.96875,15.4921875 L70.96875,24 Z M71.8046875,14 C72.4296875,14 72.890625,13.5546875 72.890625,12.9765625 C72.890625,12.390625 72.4296875,11.9453125 71.8046875,11.9453125 C71.1796875,11.9453125 70.71875,12.390625 70.71875,12.9765625 C70.71875,13.5546875 71.1796875,14 71.8046875,14 L71.8046875,14 Z M75.703125,13.375 L75.703125,15.53125 L74.3515625,15.53125 L74.3515625,16.9453125 L75.703125,16.9453125 L75.703125,21.75 C75.703125,23.390625 76.4453125,24.046875 78.3125,24.046875 C78.640625,24.046875 78.953125,24.0078125 79.2265625,23.9609375 L79.2265625,22.5625 C78.9921875,22.5859375 78.84375,22.6015625 78.5859375,22.6015625 C77.75,22.6015625 77.3828125,22.2109375 77.3828125,21.3203125 L77.3828125,16.9453125 L79.2265625,16.9453125 L79.2265625,15.53125 L77.3828125,15.53125 L77.3828125,13.375 L75.703125,13.375 Z M84.796875,24.1640625 C87.28125,24.1640625 88.8046875,22.5 88.8046875,19.7421875 C88.8046875,17 87.2734375,15.328125 84.796875,15.328125 C82.3125,15.328125 80.78125,17 80.78125,19.7421875 C80.78125,22.5 82.3046875,24.1640625 84.796875,24.1640625 L84.796875,24.1640625 Z M84.796875,22.671875 C83.3359375,22.671875 82.515625,21.6015625 82.515625,19.7421875 C82.515625,17.8984375 83.3359375,16.8203125 84.796875,16.8203125 C86.25,16.8203125 87.078125,17.8984375 87.078125,19.7421875 C87.078125,21.59375 86.25,22.671875 84.796875,22.671875 L84.796875,22.671875 Z M90.8203125,24 L92.5,24 L92.5,18.9765625 C92.5,17.78125 93.3984375,16.9765625 94.671875,16.9765625 C94.96875,16.9765625 95.46875,17.03125 95.609375,17.078125 L95.609375,15.421875 C95.4296875,15.375 95.109375,15.3515625 94.859375,15.3515625 C93.75,15.3515625 92.8046875,15.9609375 92.5625,16.796875 L92.4375,16.796875 L92.4375,15.4921875 L90.8203125,15.4921875 L90.8203125,24 Z M98.515625,17.1875 L99.796875,12.7265625 L98.0625,12.7265625 L97.0703125,17.1875 L98.515625,17.1875 Z M101.882812,17.8984375 C101.882812,19.1640625 102.632812,19.890625 104.25,20.2734375 L105.734375,20.6171875 C106.585938,20.8203125 106.984375,21.1484375 106.984375,21.65625 C106.984375,22.3359375 106.242188,22.8046875 105.195312,22.8046875 C104.179688,22.8046875 103.554688,22.3984375 103.34375,21.7421875 L101.664062,21.7421875 C101.8125,23.25 103.132812,24.1640625 105.15625,24.1640625 C107.1875,24.1640625 108.679688,23.09375 108.679688,21.4921875 C108.679688,20.2421875 107.921875,19.546875 106.304688,19.171875 L104.890625,18.84375 C103.96875,18.6328125 103.539062,18.3125 103.539062,17.8046875 C103.539062,17.140625 104.25,16.6953125 105.1875,16.6953125 C106.140625,16.6953125 106.75,17.09375 106.90625,17.71875 L108.515625,17.71875 C108.351562,16.21875 107.101562,15.328125 105.1875,15.328125 C103.265625,15.328125 101.882812,16.390625 101.882812,17.8984375 L101.882812,17.8984375 Z M119.898438,24.2734375 C122.414062,24.2734375 124.265625,22.7890625 124.578125,20.5625 L122.835938,20.5625 C122.523438,21.8359375 121.390625,22.640625 119.898438,22.640625 C117.867188,22.640625 116.601562,20.9921875 116.601562,18.3671875 C116.601562,15.734375 117.867188,14.0859375 119.890625,14.0859375 C121.375,14.0859375 122.507812,14.9765625 122.835938,16.359375 L124.578125,16.359375 C124.296875,14.0625 122.375,12.453125 119.890625,12.453125 C116.757812,12.453125 114.8125,14.7109375 114.8125,18.3671875 C114.8125,22.015625 116.765625,24.2734375 119.898438,24.2734375 L119.898438,24.2734375 Z M126.757812,24 L128.4375,24 L128.4375,19.03125 C128.4375,17.7421875 129.203125,16.875 130.578125,16.875 C131.765625,16.875 132.398438,17.5625 132.398438,18.921875 L132.398438,24 L134.078125,24 L134.078125,18.5078125 C134.078125,16.484375 132.960938,15.3359375 131.148438,15.3359375 C129.867188,15.3359375 128.96875,15.90625 128.554688,16.859375 L128.421875,16.859375 L128.421875,12.171875 L126.757812,12.171875 L126.757812,24 Z M140.03125,24.1640625 C142.515625,24.1640625 144.039062,22.5 144.039062,19.7421875 C144.039062,17 142.507812,15.328125 140.03125,15.328125 C137.546875,15.328125 136.015625,17 136.015625,19.7421875 C136.015625,22.5 137.539062,24.1640625 140.03125,24.1640625 L140.03125,24.1640625 Z M140.03125,22.671875 C138.570312,22.671875 137.75,21.6015625 137.75,19.7421875 C137.75,17.8984375 138.570312,16.8203125 140.03125,16.8203125 C141.484375,16.8203125 142.3125,17.8984375 142.3125,19.7421875 C142.3125,21.59375 141.484375,22.671875 140.03125,22.671875 L140.03125,22.671875 Z M146.085938,24 L147.757812,24 L147.757812,15.4921875 L146.085938,15.4921875 L146.085938,24 Z M146.921875,14 C147.546875,14 148.007812,13.5546875 148.007812,12.9765625 C148.007812,12.390625 147.546875,11.9453125 146.921875,11.9453125 C146.296875,11.9453125 145.835938,12.390625 145.835938,12.9765625 C145.835938,13.5546875 146.296875,14 146.921875,14 L146.921875,14 Z M157.429688,18.2734375 C157.210938,16.5703125 155.921875,15.328125 153.789062,15.328125 C151.3125,15.328125 149.804688,16.9921875 149.804688,19.71875 C149.804688,22.4921875 151.320312,24.1640625 153.796875,24.1640625 C155.898438,24.1640625 157.210938,22.9765625 157.429688,21.265625 L155.796875,21.265625 C155.578125,22.1796875 154.851562,22.6640625 153.789062,22.6640625 C152.390625,22.6640625 151.523438,21.5625 151.523438,19.71875 C151.523438,17.90625 152.382812,16.828125 153.789062,16.828125 C154.914062,16.828125 155.601562,17.4453125 155.796875,18.2734375 L157.429688,18.2734375 Z M162.835938,16.7578125 C164.078125,16.7578125 164.890625,17.625 164.929688,18.9609375 L160.632812,18.9609375 C160.726562,17.6328125 161.59375,16.7578125 162.835938,16.7578125 L162.835938,16.7578125 Z M164.921875,21.703125 C164.609375,22.3671875 163.914062,22.734375 162.898438,22.734375 C161.554688,22.734375 160.6875,21.7890625 160.632812,20.296875 L160.632812,20.203125 L166.640625,20.203125 L166.640625,19.6171875 C166.640625,16.9453125 165.210938,15.328125 162.84375,15.328125 C160.445312,15.328125 158.921875,17.0546875 158.921875,19.7734375 C158.921875,22.4921875 160.414062,24.1640625 162.851562,24.1640625 C164.796875,24.1640625 166.15625,23.2265625 166.539062,21.703125 L164.921875,21.703125 Z"/>
    <path fill="#FFFFFF" d="M55.4072266,32.9033203 C52.6181641,32.9033203 50.875,34.8925781 50.875,38.0644531 C50.875,41.2226562 52.5771484,43.2324219 55.4072266,43.2324219 C58.2236328,43.2324219 59.9189453,41.2158203 59.9189453,38.0644531 C59.9189453,34.8994141 58.2099609,32.9033203 55.4072266,32.9033203 L55.4072266,32.9033203 Z M55.4072266,34.0380859 C57.4238281,34.0380859 58.6542969,35.5966797 58.6542969,38.0644531 C58.6542969,40.5117188 57.4306641,42.0976562 55.4072266,42.0976562 C53.3564453,42.0976562 52.1396484,40.5117188 52.1396484,38.0644531 C52.1396484,35.5966797 53.3974609,34.0380859 55.4072266,34.0380859 L55.4072266,34.0380859 Z M67.9990234,37.8867188 C67.7939453,36.5742188 66.7001953,35.5009766 64.9091797,35.5009766 C62.8447266,35.5009766 61.5322266,36.9912109 61.5322266,39.2880859 C61.5322266,41.6328125 62.8515625,43.1298828 64.9160156,43.1298828 C66.6865234,43.1298828 67.7871094,42.1318359 67.9990234,40.7783203 L66.8095703,40.7783203 C66.5908203,41.6123047 65.9003906,42.0703125 64.9091797,42.0703125 C63.5966797,42.0703125 62.7490234,40.9902344 62.7490234,39.2880859 C62.7490234,37.6201172 63.5830078,36.5605469 64.9091797,36.5605469 C65.96875,36.5605469 66.6181641,37.1552734 66.8095703,37.8867188 L67.9990234,37.8867188 Z M70.2275391,33.7236328 L70.2275391,35.6308594 L69.0380859,35.6308594 L69.0380859,36.6152344 L70.2275391,36.6152344 L70.2275391,41.0859375 C70.2275391,42.4941406 70.8359375,43.0546875 72.3535156,43.0546875 C72.5859375,43.0546875 72.8115234,43.0273438 73.0439453,42.9863281 L73.0439453,41.9951172 C72.8251953,42.015625 72.7089844,42.0224609 72.4970703,42.0224609 C71.7314453,42.0224609 71.4033203,41.6533203 71.4033203,40.7851562 L71.4033203,36.6152344 L73.0439453,36.6152344 L73.0439453,35.6308594 L71.4033203,35.6308594 L71.4033203,33.7236328 L70.2275391,33.7236328 Z M77.8496094,43.1298828 C79.9482422,43.1298828 81.2470703,41.6806641 81.2470703,39.3154297 C81.2470703,36.9433594 79.9482422,35.5009766 77.8496094,35.5009766 C75.7509766,35.5009766 74.4521484,36.9433594 74.4521484,39.3154297 C74.4521484,41.6806641 75.7509766,43.1298828 77.8496094,43.1298828 L77.8496094,43.1298828 Z M77.8496094,42.0703125 C76.4550781,42.0703125 75.6689453,41.0585938 75.6689453,39.3154297 C75.6689453,37.5654297 76.4550781,36.5605469 77.8496094,36.5605469 C79.2441406,36.5605469 80.0302734,37.5654297 80.0302734,39.3154297 C80.0302734,41.0585938 79.2441406,42.0703125 77.8496094,42.0703125 L77.8496094,42.0703125 Z M86.7568359,43.1298828 C88.6230469,43.1298828 89.8466797,41.6191406 89.8466797,39.3154297 C89.8466797,36.9980469 88.6298828,35.5009766 86.7568359,35.5009766 C85.7451172,35.5009766 84.8496094,36 84.4462891,36.7929688 L84.3369141,36.7929688 L84.3369141,32.7050781 L83.1611328,32.7050781 L83.1611328,43 L84.2822266,43 L84.2822266,41.8242188 L84.3916016,41.8242188 C84.8564453,42.6445312 85.7314453,43.1298828 86.7568359,43.1298828 L86.7568359,43.1298828 Z M86.4833984,36.5605469 C87.8300781,36.5605469 88.6298828,37.5927734 88.6298828,39.3154297 C88.6298828,41.0380859 87.8300781,42.0703125 86.4833984,42.0703125 C85.1435547,42.0703125 84.3095703,41.0175781 84.3095703,39.3154297 C84.3095703,37.6132812 85.1435547,36.5605469 86.4833984,36.5605469 L86.4833984,36.5605469 Z M94.6318359,36.5400391 C95.8007812,36.5400391 96.5800781,37.4013672 96.6074219,38.7070312 L92.546875,38.7070312 C92.6357422,37.4013672 93.4560547,36.5400391 94.6318359,36.5400391 L94.6318359,36.5400391 Z M96.5732422,41.0927734 C96.265625,41.7421875 95.6230469,42.0908203 94.6728516,42.0908203 C93.421875,42.0908203 92.6083984,41.1679688 92.546875,39.7119141 L92.546875,39.6572266 L97.8447266,39.6572266 L97.8447266,39.2060547 C97.8447266,36.9160156 96.6347656,35.5009766 94.6455078,35.5009766 C92.6220703,35.5009766 91.3232422,37.0048828 91.3232422,39.3222656 C91.3232422,41.6533203 92.6015625,43.1298828 94.6455078,43.1298828 C96.2587891,43.1298828 97.3935547,42.3574219 97.7490234,41.0927734 L96.5732422,41.0927734 Z M99.6904297,43 L100.866211,43 L100.866211,38.4335938 C100.866211,37.3945312 101.679688,36.6425781 102.800781,36.6425781 C103.033203,36.6425781 103.457031,36.6835938 103.552734,36.7109375 L103.552734,35.5351562 C103.402344,35.5146484 103.15625,35.5009766 102.964844,35.5009766 C101.987305,35.5009766 101.139648,36.0068359 100.920898,36.7246094 L100.811523,36.7246094 L100.811523,35.6308594 L99.6904297,35.6308594 L99.6904297,43 Z M108.905273,35.9111328 L108.905273,35.9179688 L110.094727,35.9179688 L110.094727,35.9111328 C110.094727,34.7490234 110.874023,33.9765625 112.029297,33.9765625 C113.116211,33.9765625 113.957031,34.7353516 113.957031,35.7197266 C113.957031,36.5126953 113.649414,37.0458984 112.37793,38.4267578 L108.966797,42.1523438 L108.966797,43 L115.351562,43 L115.351562,41.8925781 L110.730469,41.8925781 L110.730469,41.7832031 L113.102539,39.2333984 C114.722656,37.4970703 115.1875,36.6972656 115.1875,35.671875 C115.1875,34.1064453 113.833984,32.9033203 112.063477,32.9033203 C110.231445,32.9033203 108.905273,34.1611328 108.905273,35.9111328 L108.905273,35.9111328 Z M120.738281,43.2324219 C122.953125,43.2324219 124.224609,41.359375 124.224609,38.0849609 C124.224609,34.8173828 122.932617,32.9033203 120.738281,32.9033203 C118.530273,32.9033203 117.238281,34.8105469 117.238281,38.0644531 C117.238281,41.3457031 118.516602,43.2324219 120.738281,43.2324219 L120.738281,43.2324219 Z M120.738281,42.1591797 C119.282227,42.1591797 118.475586,40.703125 118.475586,38.0644531 C118.475586,35.4599609 119.295898,33.9833984 120.738281,33.9833984 C122.180664,33.9833984 122.987305,35.4462891 122.987305,38.0644531 C122.987305,40.7099609 122.194336,42.1591797 120.738281,42.1591797 L120.738281,42.1591797 Z M128.599609,43 L129.830078,43 L129.830078,33.1357422 L128.606445,33.1357422 L125.981445,35.0224609 L125.981445,36.3212891 L128.490234,34.5029297 L128.599609,34.5029297 L128.599609,43 Z M136.023438,43.2324219 C138.067383,43.2324219 139.46875,41.8652344 139.46875,39.8623047 C139.46875,37.9208984 138.15625,36.5605469 136.283203,36.5605469 C135.374023,36.5605469 134.676758,36.8408203 134.198242,37.4013672 L134.088867,37.4013672 L134.369141,34.2363281 L138.908203,34.2363281 L138.908203,33.1357422 L133.405273,33.1357422 L132.865234,38.7275391 L134.020508,38.7275391 C134.423828,38.0234375 135.162109,37.6201172 136.057617,37.6201172 C137.349609,37.6201172 138.238281,38.5429688 138.238281,39.8964844 C138.238281,41.25 137.356445,42.1523438 136.037109,42.1523438 C134.875,42.1523438 134.027344,41.4414062 133.917969,40.375 L132.708008,40.375 C132.817383,42.0771484 134.157227,43.2324219 136.023438,43.2324219 L136.023438,43.2324219 Z" opacity=".7"/>
    <g transform="translate(4 13)">
      <mask id="c" fill="white">
        <use xlink:href="#a"/>
      </mask>
      <polygon fill="url(#b)" points=".19 -.465 .19 14.96 .19 30.385 15.794 14.96" mask="url(#c)"/>
    </g>
    <g transform="translate(4 13)">
      <mask id="f" fill="white">
        <use xlink:href="#d"/>
      </mask>
      <polygon fill="url(#e)" points="15.794 14.96 19.984 10.817 13.686 7.192 .19 -.577 .19 -.465" mask="url(#f)"/>
    </g>
    <g transform="translate(4 13)">
      <mask id="i" fill="white">
        <use xlink:href="#g"/>
      </mask>
      <polygon fill="url(#h)" points="15.794 14.96 .19 30.385 .19 30.497 13.686 22.729 19.984 19.103" mask="url(#i)"/>
    </g>
    <g transform="translate(4 13)">
      <mask id="l" fill="white">
        <use xlink:href="#j"/>
      </mask>
      <polygon fill="url(#k)" points="19.984 10.817 15.794 14.96 19.984 19.103 27.182 14.96" mask="url(#l)"/>
    </g>
  </g>
</svg>
