<?xml version="1.0" encoding="UTF-8"?>
<svg width="250px" height="54px" viewBox="0 0 250 54" version="1.1" xmlns="http://www.w3.org/2000/svg" xmlns:xlink="http://www.w3.org/1999/xlink">
    <!-- Generator: Sketch 40.3 (33839) - http://www.bohemiancoding.com/sketch -->
    <title>play-store-editors-choice</title>
    <desc>Created with Sketch.</desc>
    <defs>
        <path d="M31.0868117,16.8266225 L21.2889026,11.1869338 C21.2889026,11.1869338 3.43924314,0.911364238 2.38992431,0.307211921 C1.34060549,-0.296629139 0.295033113,0.0690993377 0.295033113,1.33125166 L0.295033113,23.2709139 L0.295033113,45.6556755 C0.295033113,46.6019007 1.04245033,47.0099603 1.95377483,46.4854901 C2.86509934,45.9600861 21.2889026,35.3552053 21.2889026,35.3552053 L31.0864995,29.7161391 C31.0864995,29.7161391 39.3995648,24.9311656 40.5047682,24.2955762 C41.6096594,23.6587417 41.5035099,22.7862848 40.5709555,22.2857815 C39.6387133,21.7849669 31.0868117,16.8266225 31.0868117,16.8266225 L31.0868117,16.8266225 Z" id="path-1"></path>
        <linearGradient x1="50.0059167%" y1="-0.00726433084%" x2="50.0059167%" y2="99.9961084%" id="linearGradient-3">
            <stop stop-color="#257CB0" offset="0%"></stop>
            <stop stop-color="#4A93B5" offset="28.63%"></stop>
            <stop stop-color="#78BCBB" offset="76.7%"></stop>
            <stop stop-color="#89CFBD" offset="100%"></stop>
        </linearGradient>
        <path d="M31.0868117,16.8266225 L21.2889026,11.1869338 C21.2889026,11.1869338 3.43924314,0.911364238 2.38992431,0.307211921 C1.34060549,-0.296629139 0.295033113,0.0690993377 0.295033113,1.33125166 L0.295033113,23.2709139 L0.295033113,45.6556755 C0.295033113,46.6019007 1.04245033,47.0099603 1.95377483,46.4854901 C2.86509934,45.9600861 21.2889026,35.3552053 21.2889026,35.3552053 L31.0864995,29.7161391 C31.0864995,29.7161391 39.3995648,24.9311656 40.5047682,24.2955762 C41.6096594,23.6587417 41.5035099,22.7862848 40.5709555,22.2857815 C39.6387133,21.7849669 31.0868117,16.8266225 31.0868117,16.8266225 L31.0868117,16.8266225 Z" id="path-4"></path>
        <linearGradient x1="-4.61077951e-13%" y1="49.9956214%" x2="100.004664%" y2="49.9956214%" id="linearGradient-6">
            <stop stop-color="#52C1AD" offset="0%"></stop>
            <stop stop-color="#DEE89A" offset="100%"></stop>
        </linearGradient>
        <path d="M31.0868117,16.8266225 L21.2889026,11.1869338 C21.2889026,11.1869338 3.43924314,0.911364238 2.38992431,0.307211921 C1.34060549,-0.296629139 0.295033113,0.0690993377 0.295033113,1.33125166 L0.295033113,23.2709139 L0.295033113,45.6556755 C0.295033113,46.6019007 1.04245033,47.0099603 1.95377483,46.4854901 C2.86509934,45.9600861 21.2889026,35.3552053 21.2889026,35.3552053 L31.0864995,29.7161391 C31.0864995,29.7161391 39.3995648,24.9311656 40.5047682,24.2955762 C41.6096594,23.6587417 41.5035099,22.7862848 40.5709555,22.2857815 C39.6387133,21.7849669 31.0868117,16.8266225 31.0868117,16.8266225 L31.0868117,16.8266225 Z" id="path-7"></path>
        <linearGradient x1="50.0003042%" y1="-0.0200904068%" x2="50.0003042%" y2="99.9791369%" id="linearGradient-9">
            <stop stop-color="#EC413D" offset="0%"></stop>
            <stop stop-color="#DA4452" offset="16.68%"></stop>
            <stop stop-color="#B0487A" offset="57.48%"></stop>
            <stop stop-color="#954A92" offset="86.19%"></stop>
            <stop stop-color="#8A4A9D" offset="100%"></stop>
        </linearGradient>
        <path d="M31.0868117,16.8266225 L21.2889026,11.1869338 C21.2889026,11.1869338 3.43924314,0.911364238 2.38992431,0.307211921 C1.34060549,-0.296629139 0.295033113,0.0690993377 0.295033113,1.33125166 L0.295033113,23.2709139 L0.295033113,45.6556755 C0.295033113,46.6019007 1.04245033,47.0099603 1.95377483,46.4854901 C2.86509934,45.9600861 21.2889026,35.3552053 21.2889026,35.3552053 L31.0864995,29.7161391 C31.0864995,29.7161391 39.3995648,24.9311656 40.5047682,24.2955762 C41.6096594,23.6587417 41.5035099,22.7862848 40.5709555,22.2857815 C39.6387133,21.7849669 31.0868117,16.8266225 31.0868117,16.8266225 L31.0868117,16.8266225 Z" id="path-10"></path>
        <linearGradient x1="50.0019385%" y1="-0.0405699106%" x2="50.0019385%" y2="99.9700555%" id="linearGradient-12">
            <stop stop-color="#F58879" offset="0%"></stop>
            <stop stop-color="#F69079" offset="11.94%"></stop>
            <stop stop-color="#FCB877" offset="71.28%"></stop>
            <stop stop-color="#FEC874" offset="100%"></stop>
        </linearGradient>
    </defs>
    <g id="Symbols" stroke="none" stroke-width="1" fill="none" fill-rule="evenodd">
        <g id="play-store-editors-choice">
            <g id="Group-2" transform="translate(4.000000, 3.000000)">
                <text id="Editor’s-Choice" opacity="0.800000012" font-family="SFUIText-Semibold, SF UI Text" font-size="22" font-weight="500" fill="#FFFFFF">
                    <tspan x="61" y="21">Editor’s Choice</tspan>
                </text>
                <text id="Google-Play,-October" opacity="0.5" font-family="SFUIText-Regular, SF UI Text" font-size="14" font-weight="normal" fill="#FFFFFF">
                    <tspan x="61" y="43">Google Play, </tspan>
                    <tspan x="147.857422" y="43" font-family="SFUIText-Italic, SF UI Text" font-style="italic">October 2015</tspan>
                </text>
                <g id="PLAY_2_" transform="translate(0.000000, 1.000000)">
                    <g id="g6">
                        <g id="polygon23-Clipped">
                            <mask id="mask-2" fill="white">
                                <use xlink:href="#path-1"></use>
                            </mask>
                            <g id="SVGID_1_"></g>
                            <polygon id="polygon23" fill="url(#linearGradient-3)" mask="url(#mask-2)" points="0.295033113 -0.723364238 0.295033113 23.2712252 0.295033113 47.2658146 24.5676727 23.2715364"></polygon>
                        </g>
                    </g>
                    <g id="g25">
                        <g id="polygon38-Clipped">
                            <mask id="mask-5" fill="white">
                                <use xlink:href="#path-4"></use>
                            </mask>
                            <g id="SVGID_4_"></g>
                            <polygon id="polygon38" fill="url(#linearGradient-6)" mask="url(#mask-5)" points="24.5676727 23.2715364 31.0868117 16.8266225 21.2885904 11.1869338 0.295033113 -0.897668874 0.295033113 -0.723364238"></polygon>
                        </g>
                    </g>
                    <g id="g40">
                        <g id="polygon59-Clipped">
                            <mask id="mask-8" fill="white">
                                <use xlink:href="#path-7"></use>
                            </mask>
                            <g id="SVGID_7_"></g>
                            <polygon id="polygon59" fill="url(#linearGradient-9)" mask="url(#mask-8)" points="24.5676727 23.2715364 0.295033113 47.2658146 0.295033113 47.4404305 21.2885904 35.3555166 31.0861873 29.7158278"></polygon>
                        </g>
                    </g>
                    <g id="g61">
                        <g id="polygon78-Clipped">
                            <mask id="mask-11" fill="white">
                                <use xlink:href="#path-10"></use>
                            </mask>
                            <g id="SVGID_10_"></g>
                            <polygon id="polygon78" fill="url(#linearGradient-12)" mask="url(#mask-11)" points="31.0868117 16.8266225 24.5676727 23.2715364 31.0861873 29.7158278 42.2837086 23.2712252"></polygon>
                        </g>
                    </g>
                </g>
            </g>
        </g>
    </g>
</svg>