<svg xmlns="http://www.w3.org/2000/svg" width="243" height="54" viewBox="0 0 243 54" xmlns:xlink="http://www.w3.org/1999/xlink">
  <defs>
    <path id="a" d="M19.984379,10.8171145 L13.6857231,7.19160028 C13.6857231,7.19160028 2.21094202,0.58587701 1.53637992,0.197493377 C0.861817813,-0.190690161 0.189664144,0.0444210028 0.189664144,0.855804636 L0.189664144,14.9598732 L0.189664144,29.3500771 C0.189664144,29.9583647 0.670146641,30.2206887 1.25599811,29.8835293 C1.84184957,29.5457696 13.6857231,22.7283463 13.6857231,22.7283463 L19.9841783,19.1032323 C19.9841783,19.1032323 25.3282917,16.0271779 26.0387796,15.6185847 C26.7490668,15.2091911 26.6808278,14.6483259 26.0813286,14.3265738 C25.48203,14.0046216 19.984379,10.8171145 19.984379,10.8171145 L19.984379,10.8171145 Z"/>
    <linearGradient id="b" x1="50.006%" x2="50.006%" y1="-.007%" y2="99.996%">
      <stop stop-color="#257CB0" offset="0%"/>
      <stop stop-color="#4A93B5" offset="28.63%"/>
      <stop stop-color="#78BCBB" offset="76.7%"/>
      <stop stop-color="#89CFBD" offset="100%"/>
    </linearGradient>
    <path id="d" d="M19.984379,10.8171145 L13.6857231,7.19160028 C13.6857231,7.19160028 2.21094202,0.58587701 1.53637992,0.197493377 C0.861817813,-0.190690161 0.189664144,0.0444210028 0.189664144,0.855804636 L0.189664144,14.9598732 L0.189664144,29.3500771 C0.189664144,29.9583647 0.670146641,30.2206887 1.25599811,29.8835293 C1.84184957,29.5457696 13.6857231,22.7283463 13.6857231,22.7283463 L19.9841783,19.1032323 C19.9841783,19.1032323 25.3282917,16.0271779 26.0387796,15.6185847 C26.7490668,15.2091911 26.6808278,14.6483259 26.0813286,14.3265738 C25.48203,14.0046216 19.984379,10.8171145 19.984379,10.8171145 L19.984379,10.8171145 Z"/>
    <linearGradient id="e" x1="0%" x2="100.005%" y1="49.996%" y2="49.996%">
      <stop stop-color="#52C1AD" offset="0%"/>
      <stop stop-color="#DEE89A" offset="100%"/>
    </linearGradient>
    <path id="g" d="M19.984379,10.8171145 L13.6857231,7.19160028 C13.6857231,7.19160028 2.21094202,0.58587701 1.53637992,0.197493377 C0.861817813,-0.190690161 0.189664144,0.0444210028 0.189664144,0.855804636 L0.189664144,14.9598732 L0.189664144,29.3500771 C0.189664144,29.9583647 0.670146641,30.2206887 1.25599811,29.8835293 C1.84184957,29.5457696 13.6857231,22.7283463 13.6857231,22.7283463 L19.9841783,19.1032323 C19.9841783,19.1032323 25.3282917,16.0271779 26.0387796,15.6185847 C26.7490668,15.2091911 26.6808278,14.6483259 26.0813286,14.3265738 C25.48203,14.0046216 19.984379,10.8171145 19.984379,10.8171145 L19.984379,10.8171145 Z"/>
    <linearGradient id="h" x1="50%" x2="50%" y1="-.02%" y2="99.979%">
      <stop stop-color="#EC413D" offset="0%"/>
      <stop stop-color="#DA4452" offset="16.68%"/>
      <stop stop-color="#B0487A" offset="57.48%"/>
      <stop stop-color="#954A92" offset="86.19%"/>
      <stop stop-color="#8A4A9D" offset="100%"/>
    </linearGradient>
    <path id="j" d="M19.984379,10.8171145 L13.6857231,7.19160028 C13.6857231,7.19160028 2.21094202,0.58587701 1.53637992,0.197493377 C0.861817813,-0.190690161 0.189664144,0.0444210028 0.189664144,0.855804636 L0.189664144,14.9598732 L0.189664144,29.3500771 C0.189664144,29.9583647 0.670146641,30.2206887 1.25599811,29.8835293 C1.84184957,29.5457696 13.6857231,22.7283463 13.6857231,22.7283463 L19.9841783,19.1032323 C19.9841783,19.1032323 25.3282917,16.0271779 26.0387796,15.6185847 C26.7490668,15.2091911 26.6808278,14.6483259 26.0813286,14.3265738 C25.48203,14.0046216 19.984379,10.8171145 19.984379,10.8171145 L19.984379,10.8171145 Z"/>
    <linearGradient id="k" x1="50.002%" x2="50.002%" y1="-.041%" y2="99.97%">
      <stop stop-color="#F58879" offset="0%"/>
      <stop stop-color="#F69079" offset="11.94%"/>
      <stop stop-color="#FCB877" offset="71.28%"/>
      <stop stop-color="#FEC874" offset="100%"/>
    </linearGradient>
  </defs>
  <g fill="none" fill-rule="evenodd" transform="translate(4 9)">
    <text fill="#FFFFFF" opacity=".8" font-family="SFUIText-Regular, SF UI Text" font-size="16">
      <tspan x="46" y="15">Editor’s Choice</tspan>
    </text>
    <text fill="#FFFFFF" opacity=".5" font-family="SFUIText-Regular, SF UI Text" font-size="14">
      <tspan x="46" y="34">October 2015</tspan>
    </text>
    <g transform="translate(0 4)">
      <mask id="c" fill="white">
        <use xlink:href="#a"/>
      </mask>
      <polygon fill="url(#b)" points=".19 -.465 .19 14.96 .19 30.385 15.794 14.96" mask="url(#c)"/>
      <mask id="f" fill="white">
        <use xlink:href="#d"/>
      </mask>
      <polygon fill="url(#e)" points="15.794 14.96 19.984 10.817 13.686 7.192 .19 -.577 .19 -.465" mask="url(#f)"/>
      <g>
        <mask id="i" fill="white">
          <use xlink:href="#g"/>
        </mask>
        <polygon fill="url(#h)" points="15.794 14.96 .19 30.385 .19 30.497 13.686 22.729 19.984 19.103" mask="url(#i)"/>
      </g>
      <g>
        <mask id="l" fill="white">
          <use xlink:href="#j"/>
        </mask>
        <polygon fill="url(#k)" points="19.984 10.817 15.794 14.96 19.984 19.103 27.182 14.96" mask="url(#l)"/>
      </g>
    </g>
  </g>
</svg>
