<svg xmlns="http://www.w3.org/2000/svg" width="54" height="58" viewBox="0 0 54 58">
  <g fill="#FFFFFF" fill-rule="evenodd">
    <path d="M3.60693359,52.9160156 C3.69287109,54.3017578 4.84765625,55.1879883 6.56640625,55.1879883 C8.40332031,55.1879883 9.55273438,54.2587891 9.55273438,52.7763672 C9.55273438,51.6108398 8.89746094,50.9663086 7.30761719,50.5957031 L6.45361328,50.3862305 C5.44384766,50.1499023 5.03564453,49.8330078 5.03564453,49.2797852 C5.03564453,48.581543 5.66943359,48.125 6.62011719,48.125 C7.52246094,48.125 8.14550781,48.5708008 8.25830078,49.2851562 L9.42919922,49.2851562 C9.359375,47.9799805 8.20996094,47.0615234 6.63623047,47.0615234 C4.94433594,47.0615234 3.81640625,47.9799805 3.81640625,49.3603516 C3.81640625,50.4990234 4.45556641,51.1757812 5.85742188,51.503418 L6.85644531,51.7451172 C7.88232422,51.9868164 8.33349609,52.3413086 8.33349609,52.9321289 C8.33349609,53.6196289 7.62451172,54.1191406 6.65771484,54.1191406 C5.62109375,54.1191406 4.90136719,53.6518555 4.79931641,52.9160156 L3.60693359,52.9160156 Z M15.3115234,55.1879883 C17.0410156,55.1879883 18.3139648,54.1674805 18.5288086,52.6367188 L17.3310547,52.6367188 C17.1162109,53.512207 16.3374023,54.0654297 15.3115234,54.0654297 C13.9150391,54.0654297 13.0449219,52.9321289 13.0449219,51.1274414 C13.0449219,49.3173828 13.9150391,48.184082 15.3061523,48.184082 C16.3266602,48.184082 17.1054688,48.7963867 17.3310547,49.7470703 L18.5288086,49.7470703 C18.3354492,48.1679688 17.0141602,47.0615234 15.3061523,47.0615234 C13.1523438,47.0615234 11.8149414,48.6137695 11.8149414,51.1274414 C11.8149414,53.6357422 13.1577148,55.1879883 15.3115234,55.1879883 L15.3115234,55.1879883 Z M22.3110352,48.3076172 L24.0083008,48.3076172 C24.9375,48.3076172 25.5068359,48.8178711 25.5068359,49.6611328 C25.5068359,50.5258789 24.9697266,51.0200195 24.0405273,51.0200195 L22.3110352,51.0200195 L22.3110352,48.3076172 Z M22.3110352,52.0458984 L24.0083008,52.0458984 L25.5874023,55 L26.9785156,55 L25.2382812,51.847168 C26.1835938,51.5249023 26.7421875,50.6762695 26.7421875,49.6342773 C26.7421875,48.1787109 25.737793,47.2495117 24.1748047,47.2495117 L21.1079102,47.2495117 L21.1079102,55 L22.3110352,55 L22.3110352,52.0458984 Z M32.7587891,47.0615234 C30.5351563,47.0615234 29.1386719,48.6191406 29.1386719,51.1220703 C29.1386719,53.6196289 30.5083008,55.1879883 32.7587891,55.1879883 C35.0039062,55.1879883 36.3681641,53.6142578 36.3681641,51.1220703 C36.3681641,48.6245117 34.9931641,47.0615234 32.7587891,47.0615234 L32.7587891,47.0615234 Z M32.7587891,48.184082 C34.2304688,48.184082 35.1381836,49.3227539 35.1381836,51.1220703 C35.1381836,52.9106445 34.2304688,54.0654297 32.7587891,54.0654297 C31.2709961,54.0654297 30.3686523,52.9106445 30.3686523,51.1220703 C30.3686523,49.3227539 31.2978516,48.184082 32.7587891,48.184082 L32.7587891,48.184082 Z M43.8295898,53.8935547 L40.1987305,53.8935547 L40.1987305,47.2495117 L38.9956055,47.2495117 L38.9956055,55 L43.8295898,55 L43.8295898,53.8935547 Z M51.1835938,53.8935547 L47.5527344,53.8935547 L47.5527344,47.2495117 L46.3496094,47.2495117 L46.3496094,55 L51.1835938,55 L51.1835938,53.8935547 Z" opacity=".7"/>
    <path d="M19,24.9950655 C19,29.4253403 22.581722,33 27,33 C31.4092877,33 35,29.4160688 35,24.9950655 L35,13.0049345 C35,8.57465974 31.418278,5 27,5 C22.5907123,5 19,8.58393124 19,13.0049345 L19,24.9950655 Z M18,13.0049345 C18,8.03471533 22.0353582,4 27,4 C31.9737243,4 36,8.02553597 36,13.0049345 L36,24.9950655 C36,29.9652847 31.9646418,34 27,34 C22.0262757,34 18,29.974464 18,24.9950655 L18,13.0049345 Z" opacity=".8"/>
    <rect width="2" height="4" x="26" y="11" opacity=".8" rx="1"/>
  </g>
</svg>
